<svg width="214" height="214" viewBox="0 0 214 214" fill="none" xmlns="http://www.w3.org/2000/svg">
<path d="M201.225 114.558L201.496 111.972L195.627 111.359L195.894 108.813L209.818 110.267L209.552 112.813L203.723 112.205L203.445 114.87L208.855 119.477L208.568 122.222L202.322 116.764L194.625 120.947L194.931 118.023L201.225 114.558Z" fill="#F5F5F5"/>
<path d="M191.365 133.431C191.821 132.079 192.523 130.957 193.47 130.067C194.431 129.18 195.533 128.602 196.778 128.332C198.036 128.066 199.309 128.151 200.598 128.585C201.887 129.019 202.945 129.72 203.772 130.688C204.612 131.661 205.139 132.788 205.354 134.071C205.581 135.357 205.467 136.676 205.011 138.028C204.555 139.38 203.847 140.499 202.887 141.386C201.939 142.276 200.843 142.857 199.598 143.127C198.353 143.397 197.08 143.313 195.779 142.874C194.477 142.436 193.413 141.732 192.585 140.764C191.758 139.796 191.231 138.668 191.003 137.382C190.789 136.099 190.909 134.782 191.365 133.431ZM193.526 134.159C193.227 135.043 193.155 135.905 193.308 136.744C193.474 137.588 193.842 138.331 194.413 138.974C194.997 139.621 195.731 140.093 196.616 140.391C197.5 140.689 198.365 140.755 199.209 140.59C200.065 140.428 200.809 140.059 201.439 139.484C202.082 138.913 202.552 138.185 202.851 137.3C203.149 136.416 203.215 135.552 203.049 134.708C202.896 133.869 202.528 133.125 201.944 132.478C201.373 131.836 200.645 131.365 199.76 131.067C198.876 130.769 198.005 130.701 197.149 130.863C196.305 131.029 195.562 131.397 194.919 131.969C194.288 132.544 193.824 133.274 193.526 134.159Z" fill="#F5F5F5"/>
<path d="M191.788 164.814L179.92 157.388L181.3 155.184L186.386 158.367L190.229 152.231L185.143 149.048L186.523 146.845L198.391 154.271L197.011 156.474L192.111 153.409L188.268 159.544L193.168 162.61L191.788 164.814Z" fill="#F5F5F5"/>
<path d="M176.375 179.546L179.609 176.218L171.143 167.999L172.941 166.148L181.407 174.368L184.627 171.055L186.205 172.587L177.954 181.078L176.375 179.546Z" fill="#F5F5F5"/>
<path d="M157.127 183.854L162.921 179.926L162.244 176.471L164.463 174.967L167.109 190.087L164.99 191.524L151.898 183.485L154.149 181.959L157.127 183.854ZM158.985 185.06L164.606 188.643L163.338 182.108L158.985 185.06Z" fill="#F5F5F5"/>
<path d="M143.723 193.998L146.14 193.04L143.963 187.556L146.343 186.613L151.508 199.625L149.128 200.569L146.966 195.122L144.475 196.11L142.9 203.038L140.334 204.056L142.276 195.992L135.002 191.11L137.735 190.026L143.723 193.998Z" fill="#F5F5F5"/>
<path d="M120.711 206.426L125.282 205.626L123.248 194.003L125.789 193.559L127.823 205.182L132.374 204.386L132.753 206.553L121.09 208.593L120.711 206.426Z" fill="#F5F5F5"/>
<path d="M104.621 204.788C102.944 204.691 101.682 204.237 100.834 203.427C99.9719 202.629 99.5837 201.491 99.6694 200.014C99.7589 198.469 100.32 197.313 101.353 196.545C102.385 195.79 103.793 195.464 105.577 195.568L111.586 195.916L110.776 209.892L108.221 209.744L108.495 205.012L104.621 204.788ZM105.581 197.571C104.569 197.513 103.777 197.7 103.204 198.135C102.631 198.569 102.319 199.232 102.267 200.124C102.169 201.814 103.172 202.721 105.275 202.842L108.609 203.035L108.915 197.764L105.581 197.571ZM97.1192 209.101L94.5634 208.953L95.3737 194.977L97.9294 195.125L97.1192 209.101Z" fill="#F5F5F5"/>
<path d="M53.602 184.974L55.716 186.488L59.1528 181.692L61.2343 183.182L53.0792 194.562L50.9977 193.072L54.4112 188.308L52.2321 186.748L45.55 189.171L43.3058 187.565L51.1418 184.836L51.3146 176.08L53.7051 177.792L53.602 184.974Z" fill="#F5F5F5"/>
<path d="M42.0024 166.968C42.9511 168.034 43.5776 169.199 43.8819 170.463C44.1762 171.736 44.1322 172.979 43.7497 174.194C43.3573 175.417 42.6531 176.481 41.6369 177.385C40.6208 178.289 39.487 178.86 38.2356 179.099C36.9743 179.347 35.7333 179.246 34.5125 178.797C33.2817 178.357 32.192 177.605 31.2432 176.539C30.2945 175.474 29.673 174.304 29.3787 173.032C29.0744 171.768 29.1135 170.528 29.4959 169.314C29.8783 168.099 30.5826 167.035 31.6087 166.123C32.6348 165.21 33.7736 164.634 35.0249 164.395C36.2763 164.157 37.5173 164.257 38.7481 164.697C39.9689 165.146 41.0537 165.903 42.0024 166.968ZM40.2989 168.484C39.6782 167.787 38.9652 167.297 38.1598 167.014C37.3445 166.74 36.516 166.691 35.6744 166.869C34.8228 167.056 34.0484 167.459 33.351 168.079C32.6537 168.7 32.1679 169.417 31.8938 170.232C31.6096 171.056 31.5614 171.884 31.7491 172.716C31.9269 173.558 32.3261 174.327 32.9468 175.024C33.5674 175.721 34.2854 176.206 35.1007 176.48C35.9061 176.763 36.7346 176.812 37.5862 176.625C38.4278 176.448 39.1973 176.049 39.8946 175.428C40.592 174.808 41.0827 174.086 41.3668 173.262C41.641 172.447 41.6892 171.619 41.5114 170.778C41.3237 169.946 40.9195 169.181 40.2989 168.484Z" fill="#F5F5F5"/>
<path d="M14.5937 152.001L26.9033 145.332L28.1427 147.617L22.8672 150.475L26.3186 156.84L31.5941 153.982L32.8336 156.267L20.5241 162.936L19.2846 160.651L24.3667 157.897L20.9153 151.533L15.8332 154.286L14.5937 152.001Z" fill="#F5F5F5"/>
<path d="M9.40171 131.407L10.7006 135.861L22.0297 132.561L22.7519 135.038L11.4228 138.338L12.716 142.774L10.6038 143.389L7.2895 132.022L9.40171 131.407Z" fill="#F5F5F5"/>
<path d="M15.1786 112.632L15.7183 119.611L19.0551 120.738L19.2617 123.41L4.81756 118.207L4.62017 115.654L18.0913 108.275L18.301 110.987L15.1786 112.632ZM13.2109 113.647L7.31268 116.75L13.6165 118.891L13.2109 113.647Z" fill="#F5F5F5"/>
<path d="M12.9892 95.5968L12.6197 98.1704L18.46 99.008L18.0962 101.542L4.238 99.5545L4.60178 97.0205L10.4024 97.8524L10.7833 95.1996L5.55385 90.3885L5.94605 87.6565L11.9781 93.3505L19.8298 89.4658L19.4121 92.376L12.9892 95.5968Z" fill="#F5F5F5"/>
<path d="M13.5196 69.6304L11.9543 73.9984L23.0638 77.9757L22.1935 80.4045L11.084 76.4272L9.52541 80.7764L7.45414 80.0348L11.4483 68.8889L13.5196 69.6304Z" fill="#F5F5F5"/>
<path d="M22.6812 56.773C23.5989 55.3658 24.6201 54.4955 25.7449 54.1621C26.8657 53.8102 28.0462 54.0382 29.2862 54.8461C30.5821 55.6904 31.3069 56.7515 31.4606 58.0292C31.6031 59.2996 31.1863 60.6831 30.2103 62.1796L26.9219 67.2221L15.1918 59.5797L16.5902 57.4354L20.5617 60.0229L22.6812 56.773ZM28.4691 61.1884C29.0226 60.3396 29.2532 59.5589 29.1608 58.8462C29.0684 58.1336 28.648 57.5334 27.8995 57.0458C26.4807 56.1214 25.1959 56.5415 24.0452 58.3061L22.2207 61.1038L26.6446 63.986L28.4691 61.1884ZM22.6646 48.1211L24.063 45.9768L35.7931 53.6192L34.3947 55.7635L22.6646 48.1211Z" fill="#F5F5F5"/>
<path d="M64.9514 22.1043L62.5919 23.1964L65.0722 28.5497L62.749 29.6251L56.8636 16.9223L59.1868 15.8469L61.6503 21.164L64.0824 20.0382L65.267 13.0326L67.7717 11.8732L66.2841 20.0329L73.8205 24.5004L71.1525 25.7354L64.9514 22.1043Z" fill="#F5F5F5"/>
<path d="M86.6989 20.7423C85.3028 21.0362 83.9805 21.0012 82.732 20.6372C81.4807 20.2602 80.4227 19.6041 79.558 18.6688C78.6905 17.7205 78.1165 16.5809 77.8361 15.2502C77.5557 13.9194 77.6225 12.6518 78.0364 11.4474C78.4476 10.2299 79.1509 9.20297 80.1466 8.36662C81.1394 7.51722 82.3339 6.94559 83.73 6.65172C85.126 6.35785 86.4497 6.39941 87.701 6.77642C88.9495 7.14038 90.0062 7.78999 90.8709 8.72526C91.7357 9.66052 92.3096 10.8001 92.5928 12.1439C92.8759 13.4877 92.8105 14.7618 92.3966 15.9663C91.9827 17.1707 91.2793 18.1976 90.2865 19.047C89.2908 19.8833 88.095 20.4485 86.6989 20.7423ZM86.2288 18.5113C87.1422 18.3191 87.9215 17.9438 88.567 17.3856C89.2097 16.8143 89.6628 16.1193 89.9264 15.3008C90.1872 14.4693 90.2214 13.5969 90.0289 12.6836C89.8365 11.7703 89.4546 10.9923 88.8831 10.3496C88.3089 9.69377 87.6138 9.24055 86.798 8.9899C85.9793 8.7262 85.1134 8.69048 84.2001 8.88273C83.2867 9.07498 82.5087 9.45676 81.8661 10.0281C81.2206 10.5863 80.7675 11.2812 80.5067 12.1128C80.2431 12.9313 80.2075 13.7972 80.4 14.7105C80.5924 15.6238 80.9757 16.4083 81.5499 17.0641C82.1214 17.7068 82.8164 18.16 83.635 18.4237C84.4509 18.6744 85.3155 18.7036 86.2288 18.5113Z" fill="#F5F5F5"/>
<path d="M113.701 4.38736L113.322 18.3822L110.723 18.312L110.885 12.3142L103.648 12.1187L103.486 18.1166L100.887 18.0463L101.265 4.05146L103.864 4.12167L103.708 9.89955L110.945 10.095L111.102 4.31716L113.701 4.38736Z" fill="#F5F5F5"/>
<path d="M134.125 10.1033L129.616 9.00969L126.832 20.4766L124.325 19.8685L127.109 8.40159L122.619 7.31267L123.138 5.17477L134.644 7.96542L134.125 10.1033Z" fill="#F5F5F5"/>
<path d="M147.493 24.4013L141.174 21.3903L138.533 23.7211L136.114 22.5683L147.828 12.6419L150.139 13.743L149.818 29.0979L147.362 27.9279L147.493 24.4013ZM147.595 22.1901L147.846 15.5306L142.847 19.9275L147.595 22.1901Z" fill="#F5F5F5"/>
<path d="M163.064 30.7462L161.012 29.149L157.385 33.8029L155.365 32.2303L163.971 21.1873L165.991 22.7599L162.389 27.3822L164.504 29.0285L171.278 26.8757L173.455 28.5711L165.516 30.9828L164.992 39.7247L162.672 37.9187L163.064 30.7462Z" fill="#F5F5F5"/>
<path d="M185.512 44.1838L182.49 40.6629L173.533 48.3441L171.852 46.3864L180.81 38.7052L177.801 35.1995L179.471 33.7674L187.183 42.7518L185.512 44.1838Z" fill="#F5F5F5"/>
<path d="M192.362 58.8255C193.129 60.3198 193.38 61.6377 193.112 62.7794C192.862 63.9268 192.079 64.8385 190.762 65.5145C189.386 66.2209 188.105 66.3241 186.919 65.8241C185.744 65.318 184.749 64.2704 183.932 62.6813L181.18 57.327L193.635 50.9327L194.805 53.2096L190.588 55.3746L192.362 58.8255ZM185.656 61.6611C186.119 62.5624 186.684 63.1496 187.349 63.4227C188.014 63.6957 188.743 63.6283 189.538 63.2202C191.045 62.4468 191.316 61.1233 190.353 59.2496L188.827 56.2789L184.13 58.6904L185.656 61.6611ZM199.888 63.1L201.058 65.377L188.603 71.7712L187.433 69.4943L199.888 63.1Z" fill="#F5F5F5"/>
<path d="M108.888 96.3491L108.88 96.3116L108.88 112.371L113.956 107.323C114.204 107.076 114.54 106.94 114.892 106.94C115.245 106.94 115.578 107.076 115.827 107.323L116.615 108.108C116.863 108.355 117 108.684 117 109.036C117 109.387 116.864 109.716 116.616 109.963L107.934 118.617C107.685 118.865 107.354 119.001 107.001 119C106.647 119.001 106.315 118.865 106.067 118.617L97.3839 109.963C97.1363 109.716 97 109.387 97 109.036C97 108.684 97.1364 108.355 97.3839 108.108L98.1724 107.323C98.4199 107.076 98.7503 106.94 99.1027 106.94C99.4549 106.94 99.7679 107.076 100.016 107.323L105.12 112.428L105.12 96.3311C105.12 95.6078 105.746 95 106.471 95L107.586 95C108.312 95 108.888 95.6258 108.888 96.3491Z" fill="#39B937"/>
</svg>
